<?xml version="1.0" encoding="UTF-8" standalone="no"?>
<!-- Created with Inkscape (http://www.inkscape.org/) -->

<svg
   width="500"
   height="200"
   viewBox="0 0 132.29167 52.916666"
   version="1.1"
   id="svg1"
   xmlns="http://www.w3.org/2000/svg"
   xmlns:svg="http://www.w3.org/2000/svg">
  <defs
     id="defs1">
    <rect
       x="11.61728"
       y="95.116478"
       width="509.70816"
       height="106.00768"
       id="rect1" />
  </defs>
  <g
     id="layer1">
    <g
       fill="#009edb"
       data-name="Layer 2"
       id="g2"
       transform="scale(0.50906864)"
       style="fill:#1b4ba7;fill-opacity:1">
      <path
         d="M 12.991,10 C 5.464,10 0,15.047 0,22 a 2,2 0 0 0 4,0 7.85,7.85 0 0 1 3.991,-7 v 31 a 2,2 0 0 0 4,0 V 31 h 2 v 15 a 2,2 0 1 0 4,0 V 14.999 a 7.85,7.85 0 0 1 3.996,7.001 2,2 0 0 0 4,0 c 0,-6.953 -5.466,-12 -12.996,-12"
         style="fill:#1b4ba7;fill-opacity:1"
         id="path1" />
      <circle
         cx="12.991"
         cy="4"
         r="4"
         style="fill:#1b4ba7;fill-opacity:1"
         id="circle1" />
    </g>
    <g
       fill="#009edb"
       data-name="Layer 2"
       id="g2-4"
       transform="matrix(0.50906864,0,0,0.50906864,13.229167,0)"
       style="fill:#1b4ba7;fill-opacity:1">
      <path
         d="M 12.991,10 C 5.464,10 0,15.047 0,22 a 2,2 0 0 0 4,0 7.85,7.85 0 0 1 3.991,-7 v 31 a 2,2 0 0 0 4,0 V 31 h 2 v 15 a 2,2 0 1 0 4,0 V 14.999 a 7.85,7.85 0 0 1 3.996,7.001 2,2 0 0 0 4,0 c 0,-6.953 -5.466,-12 -12.996,-12"
         style="fill:#1b4ba7;fill-opacity:1"
         id="path1-5" />
      <circle
         cx="12.991"
         cy="4"
         r="4"
         style="fill:#1b4ba7;fill-opacity:1"
         id="circle1-5" />
    </g>
    <g
       fill="#009edb"
       data-name="Layer 2"
       id="g2-1"
       transform="matrix(0.50906864,0,0,0.50906864,26.458333,0)"
       style="fill:#1b4ba7;fill-opacity:1">
      <path
         d="M 12.991,10 C 5.464,10 0,15.047 0,22 a 2,2 0 0 0 4,0 7.85,7.85 0 0 1 3.991,-7 v 31 a 2,2 0 0 0 4,0 V 31 h 2 v 15 a 2,2 0 1 0 4,0 V 14.999 a 7.85,7.85 0 0 1 3.996,7.001 2,2 0 0 0 4,0 c 0,-6.953 -5.466,-12 -12.996,-12"
         style="fill:#1b4ba7;fill-opacity:1"
         id="path1-52" />
      <circle
         cx="12.991"
         cy="4"
         r="4"
         style="fill:#1b4ba7;fill-opacity:1"
         id="circle1-7" />
    </g>
    <g
       fill="#009edb"
       data-name="Layer 2"
       id="g2-2"
       transform="matrix(0.50906864,0,0,0.50906864,39.6875,0)"
       style="fill:#1b4ba7;fill-opacity:1">
      <path
         d="M 12.991,10 C 5.464,10 0,15.047 0,22 a 2,2 0 0 0 4,0 7.85,7.85 0 0 1 3.991,-7 v 31 a 2,2 0 0 0 4,0 V 31 h 2 v 15 a 2,2 0 1 0 4,0 V 14.999 a 7.85,7.85 0 0 1 3.996,7.001 2,2 0 0 0 4,0 c 0,-6.953 -5.466,-12 -12.996,-12"
         style="fill:#1b4ba7;fill-opacity:1"
         id="path1-3" />
      <circle
         cx="12.991"
         cy="4"
         r="4"
         style="fill:#1b4ba7;fill-opacity:1"
         id="circle1-2" />
    </g>
    <g
       fill="#009edb"
       data-name="Layer 2"
       id="g2-2-2"
       transform="matrix(0.50906864,0,0,0.50906864,52.916667,0)"
       style="fill:#1b4ba7;fill-opacity:1">
      <path
         d="M 12.991,10 C 5.464,10 0,15.047 0,22 a 2,2 0 0 0 4,0 7.85,7.85 0 0 1 3.991,-7 v 31 a 2,2 0 0 0 4,0 V 31 h 2 v 15 a 2,2 0 1 0 4,0 V 14.999 a 7.85,7.85 0 0 1 3.996,7.001 2,2 0 0 0 4,0 c 0,-6.953 -5.466,-12 -12.996,-12"
         style="fill:#1b4ba7;fill-opacity:1"
         id="path1-3-7" />
      <circle
         cx="12.991"
         cy="4"
         r="4"
         style="fill:#1b4ba7;fill-opacity:1"
         id="circle1-2-9" />
    </g>
    <g
       fill="#009edb"
       data-name="Layer 2"
       id="g2-2-1"
       transform="matrix(0.50906864,0,0,0.50906864,66.145833,0)"
       style="fill:#1b4ba7;fill-opacity:1">
      <path
         d="M 12.991,10 C 5.464,10 0,15.047 0,22 a 2,2 0 0 0 4,0 7.85,7.85 0 0 1 3.991,-7 v 31 a 2,2 0 0 0 4,0 V 31 h 2 v 15 a 2,2 0 1 0 4,0 V 14.999 a 7.85,7.85 0 0 1 3.996,7.001 2,2 0 0 0 4,0 c 0,-6.953 -5.466,-12 -12.996,-12"
         style="fill:#1b4ba7;fill-opacity:1"
         id="path1-3-2" />
      <circle
         cx="12.991"
         cy="4"
         r="4"
         style="fill:#1b4ba7;fill-opacity:1"
         id="circle1-2-3" />
    </g>
    <g
       fill="#009edb"
       data-name="Layer 2"
       id="g2-2-13"
       transform="matrix(0.50906864,0,0,0.50906864,79.375,0)"
       style="fill:#1b4ba7;fill-opacity:1">
      <path
         d="M 12.991,10 C 5.464,10 0,15.047 0,22 a 2,2 0 0 0 4,0 7.85,7.85 0 0 1 3.991,-7 v 31 a 2,2 0 0 0 4,0 V 31 h 2 v 15 a 2,2 0 1 0 4,0 V 14.999 a 7.85,7.85 0 0 1 3.996,7.001 2,2 0 0 0 4,0 c 0,-6.953 -5.466,-12 -12.996,-12"
         style="fill:#1b4ba7;fill-opacity:1"
         id="path1-3-8" />
      <circle
         cx="12.991"
         cy="4"
         r="4"
         style="fill:#1b4ba7;fill-opacity:1"
         id="circle1-2-7" />
    </g>
    <g
       fill="#009edb"
       data-name="Layer 2"
       id="g2-2-7"
       transform="matrix(0.50906864,0,0,0.50906864,105.83333,0)"
       style="fill:#cccccc;fill-opacity:1">
      <path
         d="M 12.991,10 C 5.464,10 0,15.047 0,22 a 2,2 0 0 0 4,0 7.85,7.85 0 0 1 3.991,-7 v 31 a 2,2 0 0 0 4,0 V 31 h 2 v 15 a 2,2 0 1 0 4,0 V 14.999 a 7.85,7.85 0 0 1 3.996,7.001 2,2 0 0 0 4,0 c 0,-6.953 -5.466,-12 -12.996,-12"
         style="fill:#cccccc;fill-opacity:1"
         id="path1-3-9" />
      <circle
         cx="12.991"
         cy="4"
         r="4"
         style="fill:#cccccc;fill-opacity:1"
         id="circle1-2-31" />
    </g>
    <g
       fill="#009edb"
       data-name="Layer 2"
       id="g2-2-5"
       transform="matrix(0.50906864,0,0,0.50906864,92.604167,0)"
       style="fill:#cccccc;fill-opacity:1">
      <path
         d="M 12.991,10 C 5.464,10 0,15.047 0,22 a 2,2 0 0 0 4,0 7.85,7.85 0 0 1 3.991,-7 v 31 a 2,2 0 0 0 4,0 V 31 h 2 v 15 a 2,2 0 1 0 4,0 V 14.999 a 7.85,7.85 0 0 1 3.996,7.001 2,2 0 0 0 4,0 c 0,-6.953 -5.466,-12 -12.996,-12"
         style="fill:#cccccc;fill-opacity:1"
         id="path1-3-0" />
      <circle
         cx="12.991"
         cy="4"
         r="4"
         style="fill:#cccccc;fill-opacity:1"
         id="circle1-2-2" />
    </g>
    <g
       fill="#009edb"
       data-name="Layer 2"
       id="g2-8"
       transform="matrix(0.50906864,0,0,0.50906864,119.0625,0)"
       style="fill:#cccccc;fill-opacity:1">
      <path
         d="M 12.991,10 C 5.464,10 0,15.047 0,22 a 2,2 0 0 0 4,0 7.85,7.85 0 0 1 3.991,-7 v 31 a 2,2 0 0 0 4,0 V 31 h 2 v 15 a 2,2 0 1 0 4,0 V 14.999 a 7.85,7.85 0 0 1 3.996,7.001 2,2 0 0 0 4,0 c 0,-6.953 -5.466,-12 -12.996,-12"
         style="fill:#cccccc;fill-opacity:1"
         id="path1-57" />
      <circle
         cx="12.991"
         cy="4"
         r="4"
         style="fill:#cccccc;fill-opacity:1"
         id="circle1-6" />
    </g>
    <text
       xml:space="preserve"
       transform="matrix(0.27328275,0,0,0.27328275,-3.6359419,0.87846931)"
       id="text1"
       style="font-weight:bold;font-size:32px;font-family:Calibri;-inkscape-font-specification:'Calibri Bold';text-align:start;writing-mode:lr-tb;direction:ltr;white-space:pre;shape-inside:url(#rect1);fill:#1b4ba7;fill-opacity:1;stroke:#0077bb;stroke-width:0;stroke-opacity:0.776316"
       x="-105.76172"
       y="0"><tspan
         x="11.617188"
         y="132.45055"
         id="tspan6"><tspan
           style="font-size:42.6667px"
           id="tspan3">7 out of 10 </tspan><tspan
           style="font-weight:normal;fill:#02020a"
           id="tspan5">NGO workers affected </tspan></tspan><tspan
         x="11.617188"
         y="176.45056"
         id="tspan8"><tspan
           style="font-weight:normal;fill:#02020a"
           id="tspan7">by robberies are local staff.</tspan></tspan></text>
  </g>
</svg>
