<?xml version="1.0" encoding="UTF-8" standalone="no"?>
<!-- Created with Inkscape (http://www.inkscape.org/) -->

<svg
   width="120"
   height="120"
   viewBox="0 0 120 120"
   version="1.1"
   id="svg1"
   inkscape:version="1.4 (86a8ad7, 2024-10-11)"
   sodipodi:docname="line_chart2.svg"
   xmlns:inkscape="http://www.inkscape.org/namespaces/inkscape"
   xmlns:sodipodi="http://sodipodi.sourceforge.net/DTD/sodipodi-0.dtd"
   xmlns="http://www.w3.org/2000/svg"
   xmlns:svg="http://www.w3.org/2000/svg">
  <sodipodi:namedview
     id="namedview1"
     pagecolor="#ffffff"
     bordercolor="#000000"
     borderopacity="0.25"
     inkscape:showpageshadow="2"
     inkscape:pageopacity="0.0"
     inkscape:pagecheckerboard="0"
     inkscape:deskcolor="#d1d1d1"
     inkscape:document-units="px"
     inkscape:zoom="5.6568542"
     inkscape:cx="64.788659"
     inkscape:cy="58.955028"
     inkscape:window-width="1920"
     inkscape:window-height="991"
     inkscape:window-x="-9"
     inkscape:window-y="440"
     inkscape:window-maximized="1"
     inkscape:current-layer="layer1" />
  <defs
     id="defs1">
    <inkscape:path-effect
       effect="powerstroke"
       message=""
       id="path-effect53"
       is_visible="true"
       lpeversion="1.3"
       scale_width="1"
       interpolator_type="CentripetalCatmullRom"
       interpolator_beta="0.75"
       start_linecap_type="round"
       end_linecap_type="round"
       offset_points="12.443212,0.88388348"
       linejoin_type="spiro"
       miter_limit="4"
       not_jump="true"
       sort_points="true" />
    <inkscape:path-effect
       effect="simplify"
       id="path-effect52"
       is_visible="true"
       lpeversion="1.3"
       threshold="0.6"
       steps="1"
       smooth_angles="0"
       helper_size="0"
       simplify_individual_paths="false"
       simplify_just_coalesce="false"
       step="1" />
    <inkscape:path-effect
       effect="powerstroke"
       message=""
       id="path-effect51"
       is_visible="true"
       lpeversion="1.3"
       scale_width="1"
       interpolator_type="CentripetalCatmullRom"
       interpolator_beta="0.75"
       start_linecap_type="round"
       end_linecap_type="round"
       offset_points="8.6170819,0.88388348"
       linejoin_type="spiro"
       miter_limit="4"
       not_jump="true"
       sort_points="true" />
    <inkscape:path-effect
       effect="simplify"
       id="path-effect50"
       is_visible="true"
       lpeversion="1.3"
       threshold="0.6"
       steps="1"
       smooth_angles="0"
       helper_size="0"
       simplify_individual_paths="false"
       simplify_just_coalesce="false"
       step="1" />
    <inkscape:path-effect
       effect="powerstroke"
       message=""
       id="path-effect49"
       is_visible="true"
       lpeversion="1.3"
       scale_width="1"
       interpolator_type="CentripetalCatmullRom"
       interpolator_beta="0.75"
       start_linecap_type="round"
       end_linecap_type="round"
       offset_points="2.0103159,0.88388348"
       linejoin_type="spiro"
       miter_limit="4"
       not_jump="true"
       sort_points="true" />
    <inkscape:path-effect
       effect="simplify"
       id="path-effect48"
       is_visible="true"
       lpeversion="1.3"
       threshold="0.6"
       steps="1"
       smooth_angles="0"
       helper_size="0"
       simplify_individual_paths="false"
       simplify_just_coalesce="false"
       step="1" />
    <inkscape:path-effect
       effect="powerstroke"
       message=""
       id="path-effect47"
       is_visible="true"
       lpeversion="1.3"
       scale_width="1"
       interpolator_type="CentripetalCatmullRom"
       interpolator_beta="0.75"
       start_linecap_type="round"
       end_linecap_type="round"
       offset_points="2.7659418,0.88388348"
       linejoin_type="spiro"
       miter_limit="4"
       not_jump="true"
       sort_points="true" />
    <inkscape:path-effect
       effect="simplify"
       id="path-effect46"
       is_visible="true"
       lpeversion="1.3"
       threshold="0.6"
       steps="1"
       smooth_angles="0"
       helper_size="0"
       simplify_individual_paths="false"
       simplify_just_coalesce="false"
       step="1" />
    <inkscape:path-effect
       effect="powerstroke"
       message=""
       id="path-effect45"
       is_visible="true"
       lpeversion="1.3"
       scale_width="1"
       interpolator_type="CentripetalCatmullRom"
       interpolator_beta="0.75"
       start_linecap_type="round"
       end_linecap_type="round"
       offset_points="9.0886,0.88388348"
       linejoin_type="spiro"
       miter_limit="4"
       not_jump="true"
       sort_points="true" />
    <inkscape:path-effect
       effect="simplify"
       id="path-effect44"
       is_visible="true"
       lpeversion="1.3"
       threshold="0.6"
       steps="1"
       smooth_angles="0"
       helper_size="0"
       simplify_individual_paths="false"
       simplify_just_coalesce="false"
       step="1" />
    <inkscape:path-effect
       effect="powerstroke"
       message=""
       id="path-effect43"
       is_visible="true"
       lpeversion="1.3"
       scale_width="1"
       interpolator_type="CentripetalCatmullRom"
       interpolator_beta="0.75"
       start_linecap_type="round"
       end_linecap_type="round"
       offset_points="3.6447257,0.88388348"
       linejoin_type="spiro"
       miter_limit="4"
       not_jump="true"
       sort_points="true" />
    <inkscape:path-effect
       effect="simplify"
       id="path-effect42"
       is_visible="true"
       lpeversion="1.3"
       threshold="0.6"
       steps="1"
       smooth_angles="0"
       helper_size="0"
       simplify_individual_paths="false"
       simplify_just_coalesce="false"
       step="1" />
    <inkscape:path-effect
       effect="powerstroke"
       message=""
       id="path-effect41"
       is_visible="true"
       lpeversion="1.3"
       scale_width="1"
       interpolator_type="CentripetalCatmullRom"
       interpolator_beta="0.75"
       start_linecap_type="round"
       end_linecap_type="round"
       offset_points="5.6515808,0.88388348"
       linejoin_type="spiro"
       miter_limit="4"
       not_jump="true"
       sort_points="true" />
    <inkscape:path-effect
       effect="simplify"
       id="path-effect40"
       is_visible="true"
       lpeversion="1.3"
       threshold="0.6"
       steps="1"
       smooth_angles="0"
       helper_size="0"
       simplify_individual_paths="false"
       simplify_just_coalesce="false"
       step="1" />
    <inkscape:path-effect
       effect="powerstroke"
       message=""
       id="path-effect39"
       is_visible="true"
       lpeversion="1.3"
       scale_width="1"
       interpolator_type="CentripetalCatmullRom"
       interpolator_beta="0.75"
       start_linecap_type="round"
       end_linecap_type="round"
       offset_points="5.9751139,0.88388348"
       linejoin_type="spiro"
       miter_limit="4"
       not_jump="true"
       sort_points="true" />
    <inkscape:path-effect
       effect="simplify"
       id="path-effect38"
       is_visible="true"
       lpeversion="1.3"
       threshold="0.6"
       steps="1"
       smooth_angles="0"
       helper_size="0"
       simplify_individual_paths="false"
       simplify_just_coalesce="false"
       step="1" />
    <inkscape:path-effect
       effect="powerstroke"
       message=""
       id="path-effect37"
       is_visible="true"
       lpeversion="1.3"
       scale_width="1"
       interpolator_type="CentripetalCatmullRom"
       interpolator_beta="0.75"
       start_linecap_type="round"
       end_linecap_type="round"
       offset_points="6.1227536,0.88388348"
       linejoin_type="spiro"
       miter_limit="4"
       not_jump="true"
       sort_points="true" />
    <inkscape:path-effect
       effect="simplify"
       id="path-effect36"
       is_visible="true"
       lpeversion="1.3"
       threshold="0.6"
       steps="1"
       smooth_angles="0"
       helper_size="0"
       simplify_individual_paths="false"
       simplify_just_coalesce="false"
       step="1" />
    <inkscape:path-effect
       effect="powerstroke"
       message=""
       id="path-effect35"
       is_visible="true"
       lpeversion="1.3"
       scale_width="1"
       interpolator_type="CentripetalCatmullRom"
       interpolator_beta="0.75"
       start_linecap_type="round"
       end_linecap_type="round"
       offset_points="5.0929347,0.88388348"
       linejoin_type="spiro"
       miter_limit="4"
       not_jump="true"
       sort_points="true" />
    <inkscape:path-effect
       effect="simplify"
       id="path-effect34"
       is_visible="true"
       lpeversion="1.3"
       threshold="0.6"
       steps="1"
       smooth_angles="0"
       helper_size="0"
       simplify_individual_paths="false"
       simplify_just_coalesce="false"
       step="1" />
    <inkscape:path-effect
       effect="powerstroke"
       message=""
       id="path-effect33"
       is_visible="true"
       lpeversion="1.3"
       scale_width="1"
       interpolator_type="CentripetalCatmullRom"
       interpolator_beta="0.75"
       start_linecap_type="peak"
       end_linecap_type="peak"
       offset_points="6.84108,1.5026019"
       linejoin_type="spiro"
       miter_limit="4"
       not_jump="true"
       sort_points="true" />
    <inkscape:path-effect
       effect="simplify"
       id="path-effect32"
       is_visible="true"
       lpeversion="1.3"
       threshold="0.6"
       steps="1"
       smooth_angles="0"
       helper_size="0"
       simplify_individual_paths="false"
       simplify_just_coalesce="false"
       step="1" />
    <inkscape:path-effect
       effect="powerstroke"
       message=""
       id="path-effect31"
       is_visible="true"
       lpeversion="1.3"
       scale_width="1"
       interpolator_type="CentripetalCatmullRom"
       interpolator_beta="0.75"
       start_linecap_type="peak"
       end_linecap_type="peak"
       offset_points="6.6739483,1.5026019"
       linejoin_type="spiro"
       miter_limit="4"
       not_jump="true"
       sort_points="true" />
    <inkscape:path-effect
       effect="simplify"
       id="path-effect30"
       is_visible="true"
       lpeversion="1.3"
       threshold="0.6"
       steps="1"
       smooth_angles="0"
       helper_size="0"
       simplify_individual_paths="false"
       simplify_just_coalesce="false"
       step="1" />
    <inkscape:path-effect
       effect="powerstroke"
       message=""
       id="path-effect29"
       is_visible="true"
       lpeversion="1.3"
       scale_width="1"
       interpolator_type="CentripetalCatmullRom"
       interpolator_beta="0.75"
       start_linecap_type="peak"
       end_linecap_type="peak"
       offset_points="4.736832,1.5026019"
       linejoin_type="spiro"
       miter_limit="4"
       not_jump="true"
       sort_points="true" />
    <inkscape:path-effect
       effect="simplify"
       id="path-effect28"
       is_visible="true"
       lpeversion="1.3"
       threshold="0.6"
       steps="1"
       smooth_angles="0"
       helper_size="0"
       simplify_individual_paths="false"
       simplify_just_coalesce="false"
       step="1" />
    <inkscape:path-effect
       effect="powerstroke"
       message=""
       id="path-effect27"
       is_visible="true"
       lpeversion="1.3"
       scale_width="1"
       interpolator_type="CentripetalCatmullRom"
       interpolator_beta="0.75"
       start_linecap_type="peak"
       end_linecap_type="peak"
       offset_points="7.9671929,1.5026019"
       linejoin_type="spiro"
       miter_limit="4"
       not_jump="true"
       sort_points="true" />
    <inkscape:path-effect
       effect="simplify"
       id="path-effect26"
       is_visible="true"
       lpeversion="1.3"
       threshold="0.6"
       steps="1"
       smooth_angles="0"
       helper_size="0"
       simplify_individual_paths="false"
       simplify_just_coalesce="false"
       step="1" />
    <inkscape:path-effect
       effect="powerstroke"
       message=""
       id="path-effect25"
       is_visible="true"
       lpeversion="1.3"
       scale_width="1"
       interpolator_type="CentripetalCatmullRom"
       interpolator_beta="0.75"
       start_linecap_type="peak"
       end_linecap_type="peak"
       offset_points="1.9165631,1.5026019"
       linejoin_type="spiro"
       miter_limit="4"
       not_jump="true"
       sort_points="true" />
    <inkscape:path-effect
       effect="simplify"
       id="path-effect24"
       is_visible="true"
       lpeversion="1.3"
       threshold="0.6"
       steps="1"
       smooth_angles="0"
       helper_size="0"
       simplify_individual_paths="false"
       simplify_just_coalesce="false"
       step="1" />
    <inkscape:path-effect
       effect="bspline"
       id="path-effect23"
       is_visible="true"
       lpeversion="1.3"
       weight="33.333333"
       steps="2"
       helper_size="0"
       apply_no_weight="true"
       apply_with_weight="true"
       only_selected="false"
       uniform="false" />
    <inkscape:path-effect
       effect="powerstroke"
       message=""
       id="path-effect22"
       is_visible="true"
       lpeversion="1.3"
       scale_width="1"
       interpolator_type="CentripetalCatmullRom"
       interpolator_beta="0.75"
       start_linecap_type="peak"
       end_linecap_type="peak"
       offset_points="7.7157383,1.5026019"
       linejoin_type="spiro"
       miter_limit="4"
       not_jump="true"
       sort_points="true" />
    <inkscape:path-effect
       effect="simplify"
       id="path-effect21"
       is_visible="true"
       lpeversion="1.3"
       threshold="0.6"
       steps="1"
       smooth_angles="0"
       helper_size="0"
       simplify_individual_paths="false"
       simplify_just_coalesce="false"
       step="1" />
    <inkscape:path-effect
       effect="powerstroke"
       message=""
       id="path-effect20"
       is_visible="true"
       lpeversion="1.3"
       scale_width="1"
       interpolator_type="CentripetalCatmullRom"
       interpolator_beta="0.75"
       start_linecap_type="peak"
       end_linecap_type="peak"
       offset_points="3.4588804,1.5026019"
       linejoin_type="spiro"
       miter_limit="4"
       not_jump="true"
       sort_points="true" />
    <inkscape:path-effect
       effect="simplify"
       id="path-effect19"
       is_visible="true"
       lpeversion="1.3"
       threshold="0.6"
       steps="1"
       smooth_angles="0"
       helper_size="0"
       simplify_individual_paths="false"
       simplify_just_coalesce="false"
       step="1" />
    <inkscape:path-effect
       effect="powerstroke"
       message=""
       id="path-effect18"
       is_visible="true"
       lpeversion="1.3"
       scale_width="1"
       interpolator_type="CentripetalCatmullRom"
       interpolator_beta="0.75"
       start_linecap_type="peak"
       end_linecap_type="peak"
       offset_points="4.3726723,1.5026019"
       linejoin_type="spiro"
       miter_limit="4"
       not_jump="true"
       sort_points="true" />
    <inkscape:path-effect
       effect="simplify"
       id="path-effect17"
       is_visible="true"
       lpeversion="1.3"
       threshold="0.6"
       steps="1"
       smooth_angles="0"
       helper_size="0"
       simplify_individual_paths="false"
       simplify_just_coalesce="false"
       step="1" />
    <inkscape:path-effect
       effect="powerstroke"
       message=""
       id="path-effect16"
       is_visible="true"
       lpeversion="1.3"
       scale_width="1"
       interpolator_type="CentripetalCatmullRom"
       interpolator_beta="0.75"
       start_linecap_type="peak"
       end_linecap_type="peak"
       offset_points="2.3540296,1.5026019"
       linejoin_type="spiro"
       miter_limit="4"
       not_jump="true"
       sort_points="true" />
    <inkscape:path-effect
       effect="simplify"
       id="path-effect15"
       is_visible="true"
       lpeversion="1.3"
       threshold="0.6"
       steps="1"
       smooth_angles="0"
       helper_size="0"
       simplify_individual_paths="false"
       simplify_just_coalesce="false"
       step="1" />
    <inkscape:path-effect
       effect="powerstroke"
       message=""
       id="path-effect14"
       is_visible="true"
       lpeversion="1.3"
       scale_width="1"
       interpolator_type="CentripetalCatmullRom"
       interpolator_beta="0.75"
       start_linecap_type="peak"
       end_linecap_type="peak"
       offset_points="7.1827836,1.5026019"
       linejoin_type="spiro"
       miter_limit="4"
       not_jump="true"
       sort_points="true" />
    <inkscape:path-effect
       effect="simplify"
       id="path-effect13"
       is_visible="true"
       lpeversion="1.3"
       threshold="0.6"
       steps="1"
       smooth_angles="0"
       helper_size="0"
       simplify_individual_paths="false"
       simplify_just_coalesce="false"
       step="1" />
    <inkscape:path-effect
       effect="powerstroke"
       message=""
       id="path-effect12"
       is_visible="true"
       lpeversion="1.3"
       scale_width="1"
       interpolator_type="CentripetalCatmullRom"
       interpolator_beta="0.75"
       start_linecap_type="peak"
       end_linecap_type="peak"
       offset_points="7.1088947,1.5026019"
       linejoin_type="spiro"
       miter_limit="4"
       not_jump="true"
       sort_points="true" />
    <inkscape:path-effect
       effect="simplify"
       id="path-effect11"
       is_visible="true"
       lpeversion="1.3"
       threshold="0.6"
       steps="1"
       smooth_angles="0"
       helper_size="0"
       simplify_individual_paths="false"
       simplify_just_coalesce="false"
       step="1" />
    <inkscape:path-effect
       effect="powerstroke"
       message=""
       id="path-effect10"
       is_visible="true"
       lpeversion="1.3"
       scale_width="1"
       interpolator_type="CentripetalCatmullRom"
       interpolator_beta="0.75"
       start_linecap_type="round"
       end_linecap_type="round"
       offset_points="4.4633665,1.5026019"
       linejoin_type="spiro"
       miter_limit="4"
       not_jump="true"
       sort_points="true" />
    <inkscape:path-effect
       effect="simplify"
       id="path-effect9"
       is_visible="true"
       lpeversion="1.3"
       threshold="0.6"
       steps="1"
       smooth_angles="0"
       helper_size="0"
       simplify_individual_paths="false"
       simplify_just_coalesce="false"
       step="1" />
    <inkscape:path-effect
       effect="powerstroke"
       message=""
       id="path-effect8"
       is_visible="true"
       lpeversion="1.3"
       scale_width="1"
       interpolator_type="CentripetalCatmullRom"
       interpolator_beta="0.75"
       start_linecap_type="round"
       end_linecap_type="round"
       offset_points="13.044256,1.5026019"
       linejoin_type="spiro"
       miter_limit="4"
       not_jump="true"
       sort_points="true" />
    <inkscape:path-effect
       effect="simplify"
       id="path-effect7"
       is_visible="true"
       lpeversion="1.3"
       threshold="0.012"
       steps="1"
       smooth_angles="0"
       helper_size="0"
       simplify_individual_paths="false"
       simplify_just_coalesce="false"
       step="1" />
    <inkscape:path-effect
       effect="powerstroke"
       message=""
       id="path-effect6"
       is_visible="true"
       lpeversion="1.3"
       scale_width="1"
       interpolator_type="CentripetalCatmullRom"
       interpolator_beta="0.75"
       start_linecap_type="round"
       end_linecap_type="round"
       offset_points="22.421841,1.5026019"
       linejoin_type="spiro"
       miter_limit="4"
       not_jump="true"
       sort_points="true" />
    <inkscape:path-effect
       effect="simplify"
       id="path-effect5"
       is_visible="true"
       lpeversion="1.3"
       threshold="0.012"
       steps="1"
       smooth_angles="0"
       helper_size="0"
       simplify_individual_paths="false"
       simplify_just_coalesce="false"
       step="1" />
    <inkscape:path-effect
       effect="powerstroke"
       message=""
       id="path-effect4"
       is_visible="true"
       lpeversion="1.3"
       scale_width="1"
       interpolator_type="CentripetalCatmullRom"
       interpolator_beta="0.75"
       start_linecap_type="round"
       end_linecap_type="round"
       offset_points="19.290207,1.5026019"
       linejoin_type="spiro"
       miter_limit="4"
       not_jump="true"
       sort_points="true" />
    <inkscape:path-effect
       effect="simplify"
       id="path-effect3"
       is_visible="true"
       lpeversion="1.3"
       threshold="0.012"
       steps="1"
       smooth_angles="0"
       helper_size="0"
       simplify_individual_paths="false"
       simplify_just_coalesce="false"
       step="1" />
    <inkscape:path-effect
       effect="powerstroke"
       message=""
       id="path-effect2"
       is_visible="true"
       lpeversion="1.3"
       scale_width="1"
       interpolator_type="CentripetalCatmullRom"
       interpolator_beta="0.75"
       start_linecap_type="round"
       end_linecap_type="round"
       offset_points="5.3257736,2.6516505"
       linejoin_type="spiro"
       miter_limit="4"
       not_jump="true"
       sort_points="true" />
    <inkscape:path-effect
       effect="simplify"
       id="path-effect1"
       is_visible="true"
       lpeversion="1.3"
       threshold="0.012"
       steps="1"
       smooth_angles="0"
       helper_size="0"
       simplify_individual_paths="false"
       simplify_just_coalesce="false"
       step="1" />
    <inkscape:path-effect
       effect="bspline"
       id="path-effect23-7"
       is_visible="true"
       lpeversion="1.3"
       weight="33.333333"
       steps="2"
       helper_size="0"
       apply_no_weight="true"
       apply_with_weight="true"
       only_selected="false"
       uniform="false" />
  </defs>
  <g
     inkscape:label="Layer 1"
     inkscape:groupmode="layer"
     id="layer1">
    <path
       d="M 0.93538921,76.67935 C 1.505108,76.181157 2.0306888,75.577218 2.5051726,74.857204 2.9166834,74.23275 3.2767711,73.540795 3.5911198,72.786662 4.0996593,71.575641 4.453576,70.353471 4.836918,69.043228 c 0.3426393,-1.171124 0.70352,-2.391974 1.2058391,-3.531135 0.2457463,-0.55749 0.5440094,-1.114145 0.9068232,-1.628684 0.3419926,-0.485011 0.74276,-0.934667 1.2138989,-1.313035 0.3402678,-0.276218 0.7209245,-0.521942 1.1406613,-0.731835 0.1596434,0.180851 0.3318111,0.360745 0.5171954,0.53213 0.3597921,0.332621 0.7858441,0.648816 1.2908361,0.881172 0.358447,0.167422 0.759655,0.272518 1.17372,0.297588 0.402009,0.02434 0.823531,-0.02656 1.230999,-0.175038 0.482119,-0.171485 0.907966,-0.442973 1.274359,-0.754824 0.356366,-0.303317 0.662445,-0.649034 0.927445,-0.991822 0.850952,-1.124513 1.430222,-2.398368 1.886644,-3.691557 0.361901,-1.051576 0.660762,-2.171561 0.812298,-3.339634 0.450381,-1.348042 0.863712,-2.706341 1.315947,-4.043027 0.454354,-1.342949 0.948283,-2.664605 1.559595,-3.930983 0.806482,-1.673939 1.84736,-3.2542 3.217944,-4.492762 0.0031,-0.0028 0.0062,-0.0057 0.0093,-0.0086 0.225553,-0.20977 0.455316,-0.397096 0.692009,-0.549342 0.233244,-0.150027 0.466901,-0.261899 0.704081,-0.329338 0.133196,-0.03923 0.267313,-0.05391 0.400926,-0.0445 0.01688,0.0012 0.03374,0.0028 0.05057,0.0047 0.144959,0.01689 0.283795,0.06212 0.4043,0.134268 0.211347,0.124174 0.407779,0.295668 0.602703,0.521084 0.19047,0.220266 0.367196,0.476441 0.553777,0.772041 0.300924,0.482147 0.560913,0.991108 0.855964,1.566612 0.274574,0.535562 0.581978,1.133562 0.946974,1.703102 0.0034,0.0053 0.0068,0.01056 0.01035,0.01579 0.139485,0.207748 0.320723,0.468792 0.543662,0.709309 0.222495,0.240038 0.505988,0.483222 0.877154,0.653935 0.3194,0.149728 0.668774,0.19557 0.992752,0.165234 0.313663,-0.02937 0.615674,-0.129515 0.880775,-0.280725 0.364255,-0.204504 0.671852,-0.467584 0.934575,-0.740246 0.255657,-0.26533 0.477298,-0.548911 0.67251,-0.80736 0.0022,-0.003 0.0045,-0.0059 0.0067,-0.0089 0.19021,-0.258542 0.329792,-0.531859 0.437705,-0.742531 0.115208,-0.224911 0.196416,-0.382418 0.293216,-0.519272 0.0069,-0.0097 0.01351,-0.01952 0.01997,-0.02948 0.184345,-0.284249 0.381,-0.544286 0.596288,-0.760511 0.210843,-0.211759 0.430539,-0.372422 0.664451,-0.475975 0.143056,-0.06461 0.29911,-0.09888 0.462351,-0.100071 0.160991,-0.0012 0.321889,0.02995 0.468028,0.09144 0.251353,0.103789 0.485941,0.263212 0.710511,0.477078 0.222569,0.211961 0.427228,0.469803 0.61424,0.757288 0.597943,0.939261 0.943509,2.075233 0.995106,3.244383 0.01326,0.336078 -9.93e-4,0.677405 -0.04778,1.013666 -0.0064,0.04568 -0.0091,0.0918 -0.0083,0.137917 0.02248,1.233688 0.232217,2.44261 0.512181,3.611265 0.331525,1.327611 0.785066,2.703518 1.521677,3.968404 0.0019,0.0032 0.0037,0.0064 0.0056,0.0095 0.209714,0.349982 0.458643,0.722221 0.760799,1.066281 0.300961,0.342696 0.664823,0.669149 1.110266,0.919677 0.332708,0.190029 0.70743,0.311073 1.09089,0.355026 0.380844,0.04365 0.777298,0.01197 1.158914,-0.107738 0.478136,-0.145982 0.897682,-0.389323 1.259195,-0.664618 0.357849,-0.272508 0.669082,-0.584249 0.938843,-0.883013 0.0047,-0.0053 0.0094,-0.01057 0.01404,-0.01593 0.163969,-0.190612 0.324716,-0.403256 0.448896,-0.560449 0.134289,-0.16999 0.249148,-0.306325 0.368804,-0.421212 0.0039,-0.0038 0.0078,-0.0075 0.01163,-0.01137 0.170398,-0.169741 0.335947,-0.309321 0.498647,-0.409118 0.07955,-0.04879 0.154322,-0.08551 0.224602,-0.11151 0.06954,-0.02573 0.134804,-0.04104 0.197304,-0.04747 0.04369,-0.0047 0.08611,-0.0037 0.133444,0.0043 0.04775,0.0081 0.101319,0.02341 0.160172,0.0481 0.119745,0.05023 0.24792,0.133691 0.370028,0.244345 0.230669,0.20914 0.438456,0.459987 0.637263,0.749292 0.199229,0.289918 0.380874,0.605496 0.568381,0.946566 0.388357,0.720616 0.729387,1.478388 1.08347,2.272263 0.348087,0.780432 0.710349,1.599445 1.127917,2.395027 0.224078,0.416302 0.487747,0.877049 0.837513,1.298563 0.01603,0.01932 0.03288,0.03795 0.05049,0.05583 0.400463,0.406572 0.864831,0.788739 1.387105,1.093802 0.52181,0.304794 1.109191,0.536995 1.75081,0.632254 0.588886,0.09302 1.180624,0.05603 1.738224,-0.06957 0.55575,-0.125179 1.083579,-0.33958 1.561659,-0.607948 0.659247,-0.369782 1.246709,-0.825405 1.775693,-1.324935 0.527338,-0.497974 0.999419,-1.042479 1.427479,-1.593802 1.163172,-1.52161 2.081619,-3.212227 2.759697,-4.985622 0.270646,-0.719556 0.50733,-1.470722 0.661207,-2.253041 0.0075,-0.03825 0.01251,-0.07695 0.01492,-0.11586 0.06917,-1.114879 0.338852,-2.229127 0.73461,-3.315963 0.345432,-0.918955 0.75957,-1.765681 1.33705,-2.453162 0.160887,-0.187121 0.330821,-0.352134 0.503509,-0.4759 0.170985,-0.122546 0.330651,-0.194672 0.482564,-0.224715 0.09829,-0.02022 0.207568,-0.01718 0.332504,0.01783 0.126403,0.03542 0.257762,0.100868 0.378236,0.190867 0.239828,0.178088 0.454887,0.403533 0.658494,0.672984 0.202502,0.26799 0.38574,0.568689 0.566943,0.893873 0.239665,0.462721 0.496658,0.978936 0.788844,1.471238 0.769067,1.311347 1.656036,2.597727 2.735741,3.735651 0.0024,0.0026 0.0049,0.0051 0.0073,0.0076 0.304989,0.313855 0.641056,0.636785 1.013319,0.930259 0.374149,0.294962 0.792445,0.566306 1.263981,0.771959 0.322125,0.14059 0.686094,0.242765 1.067792,0.270929 0.384645,0.02838 0.798674,-0.01794 1.199811,-0.187789 0.438183,-0.181915 0.789397,-0.4683 1.064844,-0.774522 0.274809,-0.305514 0.486748,-0.644587 0.65202,-0.958214 0.278655,-0.521402 0.461201,-1.079509 0.614802,-1.545736 1.045364,-2.740851 1.566296,-5.641754 2.096264,-8.369118 0.534292,-2.751966 1.057936,-5.394247 2.070065,-7.867582 0.756754,-1.857743 1.815894,-3.56151 3.205406,-4.913332 0.236342,-0.211694 0.438495,-0.414163 0.625006,-0.579417 0.18918,-0.167619 0.350424,-0.288818 0.508887,-0.3724 0.147779,-0.0664 0.311943,-0.103962 0.480807,-0.109999 0.17591,-0.0063 0.350682,0.02187 0.510378,0.08129 0.283107,0.103186 0.551814,0.262575 0.819856,0.469156 0.272863,0.210296 0.534674,0.460821 0.803107,0.736281 0.451989,0.468683 0.871181,0.981421 1.314797,1.522278 0.441429,0.538191 0.905848,1.102687 1.424029,1.630987 0.0039,0.004 0.0078,0.0079 0.01179,0.01179 0.206364,0.202608 0.45059,0.433926 0.728824,0.639649 0.283628,0.209711 0.619097,0.405594 1.014021,0.525484 0.329895,0.103754 0.676421,0.116908 1.00138,0.05852 0.32683,-0.05872 0.63901,-0.191489 0.90799,-0.38797 0.35342,-0.253431 0.62999,-0.566309 0.84992,-0.87422 0.22069,-0.308999 0.39843,-0.633596 0.54584,-0.916915 0.14795,-0.279562 0.28045,-0.609905 0.37228,-0.817615 0.10688,-0.241779 0.19654,-0.413777 0.30322,-0.553405 0.0174,-0.02274 0.0336,-0.04631 0.0487,-0.07062 1.34254,-2.163863 2.20098,-4.586687 2.99947,-6.776846 0.8411,-2.306417 1.614,-4.435183 2.81026,-6.352962 0.88702,-1.428618 2.00798,-2.646209 3.32329,-3.516939 0.0369,-0.02444 0.072,-0.05162 0.10479,-0.08131 -0.007,0.006 -0.01,0.0065 -0.001,0.0025 0.0101,-0.0049 0.032,-0.01408 0.0747,-0.0259 0.0825,-0.02287 0.23056,-0.04616 0.42768,-0.09108 0.61836,-0.125035 1.25253,-0.204228 1.91333,-0.294376 0.67616,-0.09224 1.37225,-0.195067 2.06765,-0.36988 0.46836,-0.118167 0.94009,-0.280522 1.38715,-0.505655 0.46118,-0.232246 0.89715,-0.531894 1.27316,-0.91797 0.42175,-0.425557 0.73288,-0.918872 0.96089,-1.41477 0.23169,-0.503918 0.38433,-1.025124 0.4858,-1.517521 0.0238,-0.09306 0.0379,-0.177615 0.0472,-0.239214 0.0112,-0.0737 0.018,-0.12791 0.0236,-0.16247 0.006,-0.03531 0.0101,-0.04952 0.009,-0.04479 -0.002,0.0055 -0.01,0.02878 -0.0294,0.05909 l 0.0475,-0.08269 c 0.23653,-0.46827 0.42388,-0.8564861 0.64769,-1.2519459 0.22799,-0.4028178 0.45728,-0.744364 0.71749,-1.0373298 0.31572,-0.355385 0.65937,-0.5892372 0.99193,-0.7153847 a 0.88388348,0.88388348 90 0 0 -0.62698,-1.6528468 c -0.63181,0.2396653 -1.20577,0.6530172 -1.68658,1.1942248 -0.37005,0.4166239 -0.66892,0.8716979 -0.93431,1.3406184 -0.24468,0.4323131 -0.45742,0.8699713 -0.67074,1.2931455 -0.0661,0.1115755 -0.11111,0.2216695 -0.14283,0.3224635 -0.0349,0.11078 -0.0544,0.212967 -0.0671,0.291055 -0.0128,0.07842 -0.0203,0.139842 -0.0267,0.18222 -0.006,0.04152 -0.0115,0.06436 -0.0124,0.06731 -0.005,0.0196 -0.0101,0.03937 -0.0142,0.05929 -0.0814,0.40121 -0.19896,0.795755 -0.36473,1.156297 -0.15978,0.347498 -0.36186,0.658152 -0.61579,0.9144 -0.22288,0.228799 -0.49119,0.418795 -0.80723,0.577949 -0.30784,0.155023 -0.65302,0.276743 -1.02376,0.370281 -0.59165,0.148729 -1.20315,0.240935 -1.87489,0.332577 -0.63297,0.08635 -1.34395,0.174943 -2.03674,0.315649 -0.007,0.0015 -0.0148,0.0031 -0.0222,0.0048 -0.10853,0.02496 -0.28417,0.04891 -0.51554,0.113072 -0.11244,0.03118 -0.24278,0.0749 -0.37779,0.140814 -0.11576,0.05652 -0.23484,0.129274 -0.34999,0.224235 -1.53977,1.030362 -2.81406,2.434979 -3.80195,4.026061 -1.31013,2.100322 -2.14171,4.409531 -2.97022,6.68143 -0.80994,2.221583 -1.60415,4.446696 -2.82038,6.417452 -0.22091,0.298358 -0.37018,0.609881 -0.48704,0.874249 -0.13178,0.29809 -0.20867,0.49908 -0.32081,0.711018 -0.1404,0.269803 -0.27233,0.505446 -0.41901,0.710811 -0.1435,0.200911 -0.28967,0.356198 -0.447883,0.469668 -0.05683,0.04147 -0.118918,0.06835 -0.184109,0.08006 -0.06282,0.01129 -0.121292,0.0068 -0.166932,-0.0076 -0.156506,-0.04756 -0.311693,-0.129888 -0.484875,-0.257937 -0.17279,-0.127759 -0.343172,-0.285294 -0.535364,-0.473792 -0.452761,-0.462277 -0.868157,-0.965399 -1.313439,-1.508288 -0.433505,-0.52853 -0.898746,-1.099074 -1.412366,-1.631645 -0.29272,-0.3004 -0.622323,-0.620155 -0.993234,-0.906017 -0.369925,-0.285102 -0.795965,-0.548496 -1.28812,-0.727839 -0.375426,-0.139712 -0.781438,-0.203471 -1.184385,-0.189066 -0.400081,0.0143 -0.803257,0.105942 -1.179127,0.281071 -0.01011,0.0047 -0.02013,0.0096 -0.03005,0.0147 -0.353165,0.18112 -0.646041,0.414263 -0.88969,0.630143 -0.245445,0.217472 -0.454241,0.427108 -0.643764,0.596162 -0.0092,0.0082 -0.0182,0.01657 -0.02703,0.02514 -1.605236,1.556975 -2.792137,3.484462 -3.623907,5.526365 -1.088057,2.658876 -1.639331,5.471662 -2.168788,8.198725 -0.541063,2.784461 -1.035912,5.522172 -2.019553,8.094318 -0.0049,0.01291 -0.0096,0.02593 -0.01389,0.03905 -0.16373,0.496783 -0.303142,0.914424 -0.503787,1.28988 -0.125167,0.237491 -0.258584,0.442099 -0.404815,0.604669 -0.144143,0.160248 -0.288284,0.265937 -0.434106,0.326484 -0.107016,0.04529 -0.233105,0.06636 -0.386165,0.05506 -0.154335,-0.01139 -0.323534,-0.05515 -0.490969,-0.128227 -0.301003,-0.131277 -0.590029,-0.314123 -0.876462,-0.539933 -0.285424,-0.225015 -0.559697,-0.485749 -0.836288,-0.770192 -0.955526,-1.007832 -1.763743,-2.171646 -2.491976,-3.413346 -0.263129,-0.443365 -0.487242,-0.895154 -0.747932,-1.398093 -0.004,-0.0077 -0.0081,-0.01529 -0.01227,-0.02285 -0.200896,-0.361238 -0.431707,-0.746366 -0.707723,-1.111643 -0.276679,-0.366153 -0.606957,-0.723521 -1.012963,-1.025001 -0.275745,-0.205995 -0.601552,-0.375659 -0.957151,-0.475309 -0.356643,-0.09994 -0.753753,-0.131995 -1.159366,-0.04842 -0.447475,0.08847 -0.837332,0.287604 -1.162506,0.520657 -0.323245,0.231672 -0.595783,0.50625 -0.820855,0.768144 -0.768784,0.915138 -1.26782,1.973309 -1.647818,2.984365 -0.435218,1.195064 -0.749232,2.457625 -0.837127,3.758944 -0.129824,0.639546 -0.328873,1.275108 -0.568589,1.912462 -0.620552,1.62291 -1.458941,3.162328 -2.507172,4.533615 -0.385109,0.495963 -0.796653,0.967957 -1.240823,1.387395 -0.444475,0.419726 -0.917132,0.78254 -1.42704,1.068555 -0.347063,0.194823 -0.715267,0.341746 -1.085042,0.425036 -0.369842,0.0833 -0.734668,0.101623 -1.082127,0.04676 -0.390185,-0.05797 -0.764937,-0.199928 -1.126866,-0.411333 -0.353148,-0.206276 -0.687078,-0.474719 -0.992087,-0.780423 -0.222248,-0.273988 -0.412062,-0.596513 -0.613738,-0.971103 -0.381874,-0.727683 -0.720373,-1.491698 -1.074349,-2.285332 -0.351592,-0.788291 -0.717648,-1.603878 -1.145312,-2.39736 -0.197959,-0.360144 -0.41361,-0.738097 -0.66407,-1.102567 -0.252498,-0.367436 -0.547526,-0.73199 -0.906966,-1.057883 -0.242286,-0.219559 -0.536737,-0.423494 -0.873462,-0.564738 -0.170111,-0.07136 -0.353925,-0.127899 -0.548941,-0.160909 -0.195996,-0.03317 -0.402231,-0.04236 -0.614405,-0.01933 -0.219772,0.02262 -0.430159,0.07549 -0.624771,0.147495 -0.194515,0.07197 -0.373104,0.162958 -0.535482,0.262557 -0.320117,0.196353 -0.593007,0.436065 -0.816354,0.658026 -0.207204,0.199805 -0.380686,0.411314 -0.52559,0.594743 -0.156375,0.197947 -0.266143,0.344952 -0.395112,0.49554 -0.22764,0.251509 -0.454665,0.473667 -0.690509,0.653266 -0.238295,0.181463 -0.472916,0.309642 -0.710915,0.38232 -0.139622,0.04377 -0.286385,0.0572 -0.4349,0.04018 -0.149722,-0.01716 -0.294144,-0.06449 -0.420566,-0.136687 -0.236368,-0.132961 -0.450017,-0.316393 -0.653627,-0.548239 -0.205067,-0.233505 -0.391337,-0.506164 -0.569858,-0.803689 -0.617167,-1.061283 -1.020311,-2.256481 -1.329406,-3.494111 -0.255981,-1.068721 -0.435009,-2.120173 -0.460413,-3.157843 0.0546,-0.424626 0.06968,-0.846725 0.05341,-1.258739 -0.06455,-1.462805 -0.495344,-2.902922 -1.274812,-4.127224 -0.246817,-0.379498 -0.536197,-0.751788 -0.881628,-1.080755 -0.350811,-0.334091 -0.764847,-0.628548 -1.249558,-0.828653 -0.368328,-0.154997 -0.767547,-0.230329 -1.161013,-0.227457 -0.399602,0.0029 -0.800315,0.0865 -1.1712,0.254092 -0.473464,0.209574 -0.869261,0.514827 -1.195405,0.84239 -0.325785,0.327201 -0.594586,0.689353 -0.817566,1.031787 -0.177957,0.254685 -0.313165,0.524777 -0.412562,0.718822 -0.113527,0.221631 -0.193011,0.370533 -0.285313,0.49685 -0.185043,0.244842 -0.353472,0.456889 -0.53119,0.641331 -0.180219,0.187037 -0.353862,0.328188 -0.532258,0.428356 -0.06391,0.03643 -0.124905,0.05445 -0.174908,0.05913 -0.04854,0.0045 -0.07206,-0.0032 -0.08349,-0.0085 -0.103577,-0.04766 -0.207643,-0.125554 -0.325134,-0.252309 -0.121638,-0.131229 -0.237508,-0.292245 -0.36719,-0.485091 -0.310039,-0.484873 -0.579419,-1.00605 -0.857199,-1.547867 -0.287548,-0.560869 -0.581786,-1.139158 -0.931784,-1.699907 -0.207303,-0.328453 -0.438614,-0.670223 -0.713871,-0.988539 -0.28808,-0.333145 -0.626985,-0.643774 -1.038168,-0.885289 -0.346433,-0.207455 -0.728631,-0.326234 -1.101412,-0.369669 -0.04372,-0.0051 -0.0874,-0.0092 -0.130981,-0.01223 -0.342023,-0.02408 -0.687616,0.01285 -1.016838,0.109927 -0.429819,0.12217 -0.821809,0.317449 -1.168662,0.540551 -0.348203,0.223971 -0.659711,0.481706 -0.934917,0.737298 -1.588612,1.437031 -2.750432,3.226669 -3.620331,5.032235 -0.656432,1.35985 -1.177177,2.758908 -1.641842,4.132335 -0.473565,1.399731 -0.894844,2.787517 -1.34537,4.130898 -0.01887,0.05625 -0.03202,0.114273 -0.03926,0.173161 -0.12865,1.046164 -0.397648,2.073261 -0.738361,3.06335 -0.422378,1.196649 -0.928312,2.283313 -1.621497,3.199406 -0.211103,0.272992 -0.433995,0.519479 -0.6691,0.719586 -0.239538,0.20388 -0.480428,0.3499 -0.72745,0.437777 -0.167141,0.06088 -0.344256,0.08469 -0.525287,0.07372 -0.186852,-0.01131 -0.370937,-0.05927 -0.537079,-0.136864 -0.299444,-0.137796 -0.573245,-0.334081 -0.834289,-0.575412 -0.271028,-0.25056 -0.52174,-0.543579 -0.761096,-0.85367 -0.05979,-0.07745 -0.120835,-0.154821 -0.194868,-0.218793 -0.074033,-0.06397 -0.1609376,-0.113848 -0.2552144,-0.140026 -0.094277,-0.02618 -0.1944541,-0.02825 -0.2908723,-0.01161 -0.096418,0.01664 -0.1886177,0.05146 -0.2797791,0.087 -0.8154367,0.317896 -1.5526586,0.744841 -2.1865956,1.259479 -0.6186665,0.49683 -1.1288655,1.075177 -1.5480827,1.669707 C 5.0605771,63.494771 4.7074638,64.158663 4.4252212,64.798947 3.8689988,66.06035 3.4784661,67.390919 3.1402757,68.546836 2.7513396,69.876199 2.424236,70.999633 1.9603296,72.104373 1.6814884,72.773314 1.371434,73.364991 1.0290947,73.884479 0.6353814,74.481926 0.21272919,74.962965 -0.22828243,75.34861 a 0.88388348,0.88388348 90 0 0 1.16367164,1.33074 z"
       id="path-1"
       inkscape:path-effect="#path-effect52;#path-effect53"
       inkscape:original-d="M 0.35355339,76.01398 C 5.0339764,71.891712 3.0965343,63.28732 9.5605797,60.759029 c 4.2698173,5.597462 7.5356423,-2.489016 7.9911213,-6.360097 1.575662,-4.693878 2.819089,-10.034465 6.823634,-13.319106 5.517864,-4.169385 5.171066,10.282832 9.720861,3.783322 2.923799,-6.201605 7.269823,-0.677056 6.643545,3.821553 0.03289,3.595209 2.596968,12.708923 6.971672,7.522073 3.990059,-5.537147 5.743047,4.055143 7.8653,6.585845 5.081349,5.121017 10.661614,-4.017864 11.564895,-8.6592 0.216005,-3.942578 3.520905,-11.104248 6.769021,-4.843209 1.563542,3.217847 6.610059,10.505578 8.648534,3.716782 2.91298,-7.482361 1.834652,-17.161987 8.775991,-22.584103 4.470979,-2.459289 7.414263,10.997733 10.682986,2.63259 3.74846,-5.578652 3.86213,-13.738534 9.97804,-17.563495 3.5401,-0.895507 7.39678,0.0081 8.12672,-5.005173 0.69166,-1.353921 1.38382,-3.0050835 2.91368,-3.5925198"
       style="fill:#000000;fill-rule:nonzero;stroke:none;stroke-width:2.026"
       transform="matrix(0.96424714,0,0,1.6928251,0.51114199,-10.175048)" />
  </g>
</svg>
